<svg width="36" height="36" viewBox="0 0 36 36" fill="none" xmlns="http://www.w3.org/2000/svg">
<g clip-path="url(#clip0_53_271)">
<path d="M35.064 17.496C35.28 17.736 35.388 18.024 35.388 18.36C35.388 18.6 35.28 18.852 35.064 19.116L32.328 22.068C32.28 22.068 32.232 22.092 32.184 22.14L32.112 22.212L32.04 22.248C31.752 22.32 31.524 22.356 31.356 22.356L31.284 22.32C31.02 22.248 30.84 22.164 30.744 22.068L27.936 19.116L27.9 19.044C27.732 18.756 27.648 18.528 27.648 18.36C27.648 18.12 27.744 17.832 27.936 17.496C28.152 17.304 28.422 17.208 28.746 17.208C29.07 17.208 29.34 17.304 29.556 17.496L30.348 18.576C30.348 16.68 29.976 14.856 29.232 13.104C28.536 11.52 27.552 10.032 26.28 8.64003C25.128 7.44003 23.64 6.42003 21.816 5.58003C20.016 4.88403 18.18 4.53603 16.308 4.53603C14.34 4.53603 12.516 4.88403 10.836 5.58003C8.964 6.37203 7.476 7.39203 6.372 8.64003C5.124 9.88803 4.116 11.376 3.348 13.104C2.58 14.832 2.196 16.656 2.196 18.576C2.196 20.568 2.568 22.392 3.312 24.048C4.128 25.896 5.148 27.384 6.372 28.512C7.5 29.76 8.988 30.768 10.836 31.536C12.492 32.328 14.316 32.724 16.308 32.724C17.556 32.724 18.756 32.568 19.908 32.256C20.94 31.968 22.02 31.536 23.148 30.96C24.036 30.456 24.996 29.748 26.028 28.836C26.94 27.924 27.696 26.988 28.296 26.028C28.44 25.788 28.668 25.632 28.98 25.56C29.292 25.488 29.58 25.512 29.844 25.632C30.084 25.896 30.228 26.16 30.276 26.424C30.3 26.52 30.3 26.634 30.276 26.766C30.252 26.898 30.204 27.024 30.132 27.144C29.388 28.344 28.524 29.436 27.54 30.42C26.412 31.428 25.308 32.244 24.228 32.868C23.292 33.42 22.02 33.924 20.412 34.38C19.068 34.716 17.7 34.884 16.308 34.884C14.076 34.884 11.952 34.464 9.936 33.624C8.256 32.928 6.528 31.752 4.752 30.096C3.288 28.632 2.124 26.928 1.26 24.984C0.42 22.968 0 20.832 0 18.576C0 16.392 0.42 14.292 1.26 12.276C2.124 10.332 3.288 8.59203 4.752 7.05603C6.384 5.52003 8.112 4.38003 9.936 3.63603C11.808 2.74803 13.92 2.30403 16.272 2.30403C18.624 2.30403 20.736 2.74803 22.608 3.63603C24.624 4.45203 26.352 5.59203 27.792 7.05603C29.136 8.40003 30.324 10.14 31.356 12.276C32.172 14.22 32.58 16.32 32.58 18.576H32.652L33.48 17.496C33.672 17.304 33.948 17.208 34.308 17.208C34.596 17.208 34.848 17.304 35.064 17.496ZM11.988 17.892C12.06 17.82 12.144 17.712 12.24 17.568L12.348 17.352C12.372 17.28 12.396 17.232 12.42 17.208L12.456 17.1C12.48 17.004 12.492 16.932 12.492 16.884V16.308C12.396 16.212 12.318 16.122 12.258 16.038C12.198 15.954 12.108 15.912 11.988 15.912C11.94 15.864 11.814 15.84 11.61 15.84C11.406 15.84 11.256 15.864 11.16 15.912C10.992 15.912 10.836 15.996 10.692 16.164C10.62 16.164 10.524 16.212 10.404 16.308L10.26 16.38C10.02 16.572 9.84 16.728 9.72 16.848L8.28 15.264C8.376 15.144 8.532 14.988 8.748 14.796L8.928 14.616L9.144 14.472C9.288 14.4 9.396 14.328 9.468 14.256L10.008 14.004L10.224 13.932C10.368 13.884 10.488 13.86 10.584 13.86C10.824 13.764 11.04 13.716 11.232 13.716H11.916C12.3 13.716 12.576 13.74 12.744 13.788C13.08 13.86 13.356 13.932 13.572 14.004C13.788 14.076 13.992 14.208 14.184 14.4C14.424 14.568 14.58 14.748 14.652 14.94L14.76 15.12C14.88 15.312 14.94 15.444 14.94 15.516C15.012 15.684 15.048 15.948 15.048 16.308V16.848C15.048 16.872 15.03 16.938 14.994 17.046C14.958 17.154 14.94 17.232 14.94 17.28C14.868 17.496 14.796 17.676 14.724 17.82L14.688 17.928C14.592 18.096 14.52 18.216 14.472 18.288L14.364 18.468C14.292 18.54 14.232 18.624 14.184 18.72L13.716 19.188C13.62 19.404 13.368 19.656 12.96 19.944L11.7 21.096V21.168H15.264V23.292H8.424V21.636L10.692 19.26C10.836 19.116 11.04 18.912 11.304 18.648L11.52 18.432C11.64 18.336 11.772 18.192 11.916 18L11.988 17.892ZM22.86 23.292H20.34V21.492H16.56V19.584L20.484 13.86H22.86V19.584H23.904V21.492H22.86V23.292ZM18.792 19.584H20.34V17.604C20.34 17.556 20.352 17.472 20.376 17.352L20.412 17.208V17.028H20.34C20.292 17.1 20.244 17.196 20.196 17.316L20.124 17.496C20.076 17.568 19.992 17.7 19.872 17.892L19.8 17.964L18.792 19.584Z" fill="#324257"/>
</g>
<defs>
<clipPath id="clip0_53_271">
<rect width="36" height="36" fill="white" transform="matrix(1 0 0 -1 0 36)"/>
</clipPath>
</defs>
</svg>
