<svg width="25" height="24" viewBox="0 0 25 24" fill="none" xmlns="http://www.w3.org/2000/svg">
<path d="M16.5 8.4L7.62502 17.3C7.42502 17.5 7.18736 17.6 6.91202 17.6C6.63669 17.6 6.39936 17.5 6.20002 17.3C6.00002 17.1 5.90002 16.8623 5.90002 16.587C5.90002 16.3117 6.00002 16.0743 6.20002 15.875L15.1 7H7.50002C7.21669 7 6.97902 6.904 6.78702 6.712C6.59502 6.52 6.49936 6.28267 6.50002 6C6.50002 5.71667 6.59602 5.479 6.78802 5.287C6.98002 5.095 7.21736 4.99934 7.50002 5H17.5C17.7834 5 18.021 5.096 18.213 5.288C18.405 5.48 18.5007 5.71734 18.5 6V16C18.5 16.2833 18.404 16.521 18.212 16.713C18.02 16.905 17.7827 17.0007 17.5 17C17.2167 17 16.979 16.904 16.787 16.712C16.595 16.52 16.4994 16.2827 16.5 16V8.4Z" fill="#324257"/>
</svg>
