<svg width="36" height="36" viewBox="0 0 36 36" fill="none" xmlns="http://www.w3.org/2000/svg">
<g clip-path="url(#clip0_53_264)">
<path d="M17.712 0.900085C20.088 0.900085 22.404 1.35608 24.66 2.26809C26.94 3.30008 28.8 4.54808 30.24 6.01208C31.824 7.64408 33.096 9.55208 34.056 11.7361C34.968 13.8481 35.424 16.1221 35.424 18.5581C35.424 20.9941 34.968 23.3041 34.056 25.4881C33.024 27.7681 31.752 29.6401 30.24 31.1041C28.512 32.8081 26.652 34.0681 24.66 34.8841C22.428 35.8201 20.112 36.2881 17.712 36.2881C15.312 36.2881 13.008 35.8201 10.8 34.8841C8.664 34.0201 6.792 32.7601 5.184 31.1041C3.696 29.5681 2.424 27.6961 1.368 25.4881C0.456 23.3041 0 20.9941 0 18.5581C0 16.1221 0.456 13.8481 1.368 11.7361C2.376 9.48008 3.648 7.57208 5.184 6.01208C6.648 4.52408 8.52 3.27608 10.8 2.26809C13.032 1.35608 15.336 0.900085 17.712 0.900085ZM17.712 34.0921C19.92 34.0921 21.924 33.6841 23.724 32.8681C25.764 31.9321 27.408 30.8161 28.656 29.5201C30 28.2481 31.116 26.6281 32.004 24.6601C32.82 22.6921 33.228 20.6521 33.228 18.5401C33.228 16.5001 32.82 14.4961 32.004 12.5281C31.188 10.6561 30.078 9.01808 28.674 7.61408C27.27 6.21008 25.62 5.11208 23.724 4.32008C21.972 3.52808 19.968 3.13208 17.712 3.13208C15.456 3.13208 13.452 3.52808 11.7 4.32008C9.804 5.11208 8.154 6.21008 6.75 7.61408C5.346 9.01808 4.242 10.6621 3.438 12.5461C2.634 14.4301 2.232 16.4281 2.232 18.5401C2.232 20.7001 2.628 22.7401 3.42 24.6601C4.308 26.6281 5.424 28.2481 6.768 29.5201C8.016 30.8161 9.66 31.9321 11.7 32.8681C13.5 33.6841 15.504 34.0921 17.712 34.0921ZM17.712 14.6881C17.232 14.6881 16.86 14.8681 16.596 15.2281C16.236 15.4921 16.056 15.8641 16.056 16.3441C16.056 16.6081 16.26 16.8121 16.668 16.9561L18.108 17.5681C18.852 17.8081 19.608 18.1321 20.376 18.5401C21.192 18.9961 21.6 19.7401 21.6 20.7721C21.6 21.6361 21.312 22.4281 20.736 23.1481C20.208 23.8441 19.572 24.2881 18.828 24.4801V25.7761C18.828 25.9921 18.72 26.2561 18.504 26.5681C18.264 26.7361 17.994 26.8201 17.694 26.8201C17.394 26.8201 17.148 26.7361 16.956 26.5681C16.716 26.2801 16.596 26.0161 16.596 25.7761V24.4801C15.9 24.2881 15.264 23.8441 14.688 23.1481C14.112 22.3801 13.824 21.5881 13.824 20.7721C13.824 20.5321 13.932 20.2921 14.148 20.0521C14.364 19.8121 14.64 19.6921 14.976 19.6921C15.24 19.6921 15.486 19.8001 15.714 20.0161C15.942 20.2321 16.056 20.4841 16.056 20.7721C16.056 21.3241 16.236 21.7201 16.596 21.9601C16.884 22.2721 17.268 22.4281 17.748 22.4281C18.228 22.4281 18.588 22.2721 18.828 21.9601C19.212 21.7201 19.404 21.3241 19.404 20.7721C19.404 20.6761 19.362 20.5861 19.278 20.5021C19.194 20.4181 19.044 20.3041 18.828 20.1601L18.756 20.1241L18.576 20.0521C18.096 19.9081 17.676 19.7641 17.316 19.6201C16.74 19.4281 15.984 19.0681 15.048 18.5401C14.232 18.1081 13.824 17.3761 13.824 16.3441C13.824 15.5281 14.112 14.7361 14.688 13.9681C15.312 13.2961 15.948 12.8761 16.596 12.7081V11.4121C16.596 11.1241 16.716 10.8361 16.956 10.5481C17.22 10.3801 17.472 10.2961 17.712 10.2961C17.952 10.2961 18.216 10.3801 18.504 10.5481C18.72 10.8601 18.828 11.1481 18.828 11.4121V12.7081C19.524 12.9001 20.16 13.3201 20.736 13.9681C21.312 14.6881 21.6 15.4801 21.6 16.3441C21.6 16.5361 21.528 16.7521 21.384 16.9921L21.312 17.1001C21 17.3641 20.712 17.4961 20.448 17.4961C20.328 17.4961 20.196 17.4601 20.052 17.3881C19.98 17.3401 19.86 17.2441 19.692 17.1001C19.572 17.0041 19.494 16.8961 19.458 16.7761C19.422 16.6561 19.404 16.5121 19.404 16.3441C19.404 15.8881 19.212 15.5161 18.828 15.2281C18.588 14.8681 18.216 14.6881 17.712 14.6881Z" fill="#324257"/>
</g>
<defs>
<clipPath id="clip0_53_264">
<rect width="36" height="36" fill="white" transform="matrix(1 0 0 -1 0 36)"/>
</clipPath>
</defs>
</svg>
