<svg width="25" height="24" viewBox="0 0 25 24" fill="none" xmlns="http://www.w3.org/2000/svg">
<path d="M15.2074 12.408C15.2074 11.48 14.8794 10.68 14.2234 10.008C13.5674 9.33596 12.7754 9.00796 11.8474 9.02396C10.9194 9.03996 10.1274 9.36796 9.47141 10.008C8.81541 10.648 8.48741 11.448 8.48741 12.408C8.48741 13.368 8.81541 14.16 9.47141 14.784C10.1274 15.408 10.9194 15.736 11.8474 15.768C12.7754 15.8 13.5674 15.472 14.2234 14.784C14.8794 14.096 15.2074 13.304 15.2074 12.408ZM17.0074 12.408C17.0074 13.832 16.5114 15.056 15.5194 16.08C14.5274 17.104 13.3034 17.608 11.8474 17.592C10.3914 17.576 9.16741 17.072 8.17541 16.08C7.18341 15.088 6.67941 13.864 6.66341 12.408C6.64741 10.952 7.15141 9.71996 8.17541 8.71196C9.19941 7.70396 10.4234 7.20796 11.8474 7.22396C13.2714 7.23996 14.4954 7.73596 15.5194 8.71196C16.5434 9.68796 17.0394 10.92 17.0074 12.408ZM18.4474 7.00796C18.4474 7.32796 18.3354 7.60796 18.1114 7.84796C17.8874 8.08796 17.5914 8.20796 17.2234 8.20796C16.8554 8.20796 16.5754 8.08796 16.3834 7.84796C16.1914 7.60796 16.0714 7.32796 16.0234 7.00796C15.9754 6.68796 16.0954 6.39996 16.3834 6.14396C16.6714 5.88796 16.9514 5.77596 17.2234 5.80796C17.4954 5.83996 17.7914 5.95196 18.1114 6.14396C18.4314 6.33596 18.5434 6.62396 18.4474 7.00796ZM11.8474 4.10396C11.7834 4.10396 11.4474 4.10396 10.8394 4.10396H9.44741C9.12741 4.10396 8.70341 4.11996 8.17541 4.15196C7.64741 4.18396 7.19941 4.22396 6.83141 4.27196C6.46341 4.31996 6.15141 4.40796 5.89541 4.53596C5.44741 4.69596 5.06341 4.94396 4.74341 5.27996C4.42341 5.61596 4.15941 5.99996 3.95141 6.43196C3.85541 6.68796 3.77541 6.99996 3.71141 7.36796C3.64741 7.73596 3.59941 8.19196 3.56741 8.73596C3.53541 9.27996 3.52741 9.69596 3.54341 9.98396C3.55941 10.272 3.55941 10.736 3.54341 11.376C3.52741 12.016 3.52741 12.36 3.54341 12.408C3.55941 12.456 3.55941 12.792 3.54341 13.416C3.52741 14.04 3.52741 14.504 3.54341 14.808C3.55941 15.112 3.56741 15.528 3.56741 16.056C3.56741 16.584 3.61541 17.04 3.71141 17.424L3.95141 18.36C4.14341 18.808 4.40741 19.192 4.74341 19.512C5.07941 19.832 5.46341 20.088 5.89541 20.28C6.13541 20.376 6.44741 20.464 6.83141 20.544C7.21541 20.624 7.66341 20.664 8.17541 20.664C8.68741 20.664 9.11141 20.672 9.44741 20.688C9.78341 20.704 10.2474 20.704 10.8394 20.688C11.4314 20.672 11.7674 20.672 11.8474 20.688C11.9274 20.704 12.2634 20.704 12.8554 20.688C13.4474 20.672 13.9034 20.672 14.2234 20.688C14.5434 20.704 14.9754 20.696 15.5194 20.664C16.0634 20.632 16.5114 20.592 16.8634 20.544C17.2154 20.496 17.5274 20.408 17.7994 20.28C18.2314 20.104 18.6234 19.848 18.9754 19.512C19.3274 19.176 19.5754 18.792 19.7194 18.36C19.8154 18.104 19.8954 17.792 19.9594 17.424C20.0234 17.056 20.0714 16.6 20.1034 16.056C20.1354 15.512 20.1434 15.096 20.1274 14.808C20.1114 14.52 20.1114 14.056 20.1274 13.416C20.1434 12.776 20.1434 12.44 20.1274 12.408C20.1114 12.376 20.1114 12.032 20.1274 11.376C20.1434 10.72 20.1434 10.256 20.1274 9.98396C20.1114 9.71196 20.1034 9.29596 20.1034 8.73596C20.1034 8.17596 20.0554 7.71996 19.9594 7.36796C19.8634 7.01596 19.7834 6.70396 19.7194 6.43196C19.5594 5.99996 19.3114 5.61596 18.9754 5.27996C18.6394 4.94396 18.2474 4.69596 17.7994 4.53596C17.5434 4.43996 17.2314 4.35196 16.8634 4.27196C16.4954 4.19196 16.0474 4.15196 15.5194 4.15196C14.9914 4.15196 14.5594 4.13596 14.2234 4.10396C13.8874 4.07196 13.4314 4.07196 12.8554 4.10396C12.2794 4.13596 11.9434 4.13596 11.8474 4.10396ZM21.9514 12.408C21.9514 14.408 21.9274 15.792 21.8794 16.56C21.7994 18.384 21.2554 19.8 20.2474 20.808C19.2394 21.816 17.8314 22.36 16.0234 22.44C15.2394 22.488 13.8474 22.512 11.8474 22.512C9.84741 22.512 8.45541 22.488 7.67141 22.44C5.84741 22.344 4.43941 21.8 3.44741 20.808C2.45541 19.816 1.91141 18.4 1.81541 16.56C1.76741 15.792 1.74341 14.408 1.74341 12.408C1.74341 10.408 1.76741 9.01596 1.81541 8.23196C1.89541 6.40796 2.43941 4.99196 3.44741 3.98396C4.45541 2.97596 5.86341 2.43196 7.67141 2.35196C8.45541 2.30396 9.84741 2.27996 11.8474 2.27996C13.8474 2.27996 15.2394 2.30396 16.0234 2.35196C17.8474 2.44796 19.2554 2.99196 20.2474 3.98396C21.2394 4.97596 21.7834 6.39196 21.8794 8.23196C21.9274 8.99996 21.9514 10.392 21.9514 12.408Z" fill="#324257"/>
</svg>
