<svg width="37" height="36" viewBox="0 0 37 36" fill="none" xmlns="http://www.w3.org/2000/svg">
<g clip-path="url(#clip0_53_257)">
<path d="M34.8611 16.9561C35.197 16.9561 35.4369 17.0881 35.5808 17.3521C35.8447 17.5681 35.9766 17.8081 35.9766 18.0721V24.3001C35.9766 25.1881 35.6528 25.9201 35.0051 26.4961C34.4773 27.1201 33.7456 27.4321 32.81 27.4321H31.0828C30.8669 28.3441 30.3991 29.0761 29.6794 29.6281C28.8398 30.2761 27.9762 30.6001 27.0886 30.6001C26.6088 30.6001 26.153 30.5041 25.7212 30.3121C25.3614 30.1681 24.9535 29.9401 24.4977 29.6281C23.8021 29.1001 23.3343 28.3681 23.0944 27.4321H15.5018C15.2859 28.3441 14.8181 29.0761 14.0984 29.6281C13.2588 30.2761 12.3951 30.6001 11.5075 30.6001C10.6199 30.6001 9.75632 30.2761 8.9167 29.6281C8.19702 29.0761 7.72923 28.3441 7.51332 27.4321H1.79188C1.59996 27.4321 1.36007 27.3361 1.0722 27.1441C0.904275 26.9521 0.820312 26.7001 0.820312 26.3881C0.820312 26.0761 0.910272 25.8241 1.09019 25.6321C1.27011 25.4401 1.50401 25.3441 1.79188 25.3441H7.51332C7.72923 24.4561 8.20302 23.7121 8.93469 23.1121C9.66636 22.5121 10.524 22.2121 11.5075 22.2121C12.4911 22.2121 13.3487 22.5121 14.0804 23.1121C14.8121 23.7121 15.2859 24.4561 15.5018 25.3441H23.0944C23.3103 24.4321 23.7781 23.6881 24.4977 23.1121C24.9295 22.8001 25.3434 22.5721 25.7392 22.4281C26.135 22.2841 26.5848 22.2121 27.0886 22.2121C28.0721 22.2121 28.9298 22.5121 29.6614 23.1121C30.3931 23.7121 30.8669 24.4561 31.0828 25.3441H32.81C33.0259 25.3441 33.2538 25.2241 33.4937 24.9841C33.7576 24.8401 33.8895 24.6121 33.8895 24.3001V19.1161H21.3671C21.1033 19.1161 20.8754 18.9961 20.6834 18.7561C20.4675 18.5641 20.3596 18.3361 20.3596 18.0721V9.7561C20.3596 9.4921 20.2396 9.2401 19.9998 9.0001C19.8078 8.8081 19.5679 8.7121 19.2801 8.7121H8.9167C8.60484 8.7121 8.35295 8.6041 8.16104 8.3881C7.96912 8.1721 7.87316 7.9441 7.87316 7.7041C7.87316 7.3681 7.96912 7.1041 8.16104 6.9121C8.35295 6.7201 8.60484 6.6241 8.9167 6.6241H19.2801C20.1437 6.6241 20.8874 6.9361 21.5111 7.5601C22.1108 8.1121 22.4107 8.8441 22.4107 9.7561V10.2601H27.0886C27.2805 10.2601 27.4244 10.2841 27.5204 10.3321C27.7123 10.4281 27.8323 10.5241 27.8802 10.6201L33.2778 16.9561H34.8611ZM22.4107 16.9561H30.579L26.5848 12.3481H22.4107V16.9561ZM11.5075 28.4401C12.1313 28.4401 12.629 28.2301 13.0009 27.8101C13.3727 27.3901 13.5586 26.9041 13.5586 26.3521C13.5586 25.8001 13.3787 25.3201 13.0189 24.9121C12.5631 24.5041 12.0533 24.3001 11.4895 24.3001C10.9258 24.3001 10.44 24.5041 10.0322 24.9121C9.62438 25.3201 9.42047 25.7941 9.42047 26.3341C9.42047 26.8741 9.62438 27.3721 10.0322 27.8281C10.368 28.2361 10.8598 28.4401 11.5075 28.4401ZM27.0886 28.4401C27.7363 28.4401 28.2401 28.2301 28.5999 27.8101C28.9597 27.3901 29.1397 26.8981 29.1397 26.3341C29.1397 25.7701 28.9418 25.2901 28.5459 24.8941C28.1501 24.4981 27.6583 24.3001 27.0706 24.3001C26.4829 24.3001 25.9971 24.4921 25.6132 24.8761C25.2294 25.2601 25.0375 25.7461 25.0375 26.3341C25.0375 26.9221 25.2414 27.4201 25.6492 27.8281C25.9611 28.2361 26.4409 28.4401 27.0886 28.4401ZM7.36939 12.8161C7.00955 12.8161 6.76966 12.7201 6.64971 12.5281C6.40982 12.3361 6.28987 12.1021 6.28987 11.8261C6.28987 11.5501 6.40982 11.2921 6.64971 11.0521C6.81764 10.8841 7.05753 10.8001 7.36939 10.8001H11.9393C12.2272 10.8001 12.4911 10.8841 12.731 11.0521C12.9229 11.3401 13.0189 11.5981 13.0189 11.8261C13.0189 12.0541 12.9229 12.2761 12.731 12.4921C12.5391 12.7081 12.2752 12.8161 11.9393 12.8161H7.36939ZM5.3183 16.9561C4.93448 16.9561 4.6586 16.8721 4.49067 16.7041C4.29876 16.4161 4.2028 16.1701 4.2028 15.9661C4.2028 15.7621 4.29876 15.5401 4.49067 15.3001C4.75456 15.0361 5.03043 14.9041 5.3183 14.9041H9.88826C10.0082 14.9041 10.1342 14.9401 10.2661 15.0121C10.398 15.0841 10.5 15.1801 10.572 15.3001C10.8119 15.4921 10.9318 15.7141 10.9318 15.9661C10.9318 16.2181 10.8119 16.4641 10.572 16.7041C10.452 16.8721 10.2241 16.9561 9.88826 16.9561H5.3183ZM9.34851 20.1241C9.34851 20.4121 9.25255 20.6521 9.06063 20.8441C8.82074 21.0841 8.56885 21.2041 8.30497 21.2041H3.73501C3.49512 21.2041 3.24923 21.0781 2.99734 20.8261C2.74545 20.5741 2.61951 20.3401 2.61951 20.1241C2.61951 19.9081 2.75145 19.6681 3.01533 19.4041C3.13528 19.2841 3.24323 19.2061 3.33919 19.1701C3.43515 19.1341 3.56709 19.1161 3.73501 19.1161H8.30497C8.61683 19.1161 8.86872 19.2121 9.06063 19.4041C9.25255 19.5961 9.34851 19.8361 9.34851 20.1241Z" fill="#324257"/>
</g>
<defs>
<clipPath id="clip0_53_257">
<rect width="36" height="36" fill="white" transform="matrix(1 0 0 -1 0.8125 36)"/>
</clipPath>
</defs>
</svg>
