<svg width="25" height="24" viewBox="0 0 25 24" fill="none" xmlns="http://www.w3.org/2000/svg">
<g clip-path="url(#clip0_53_197)">
<path d="M22.5429 5.66393C21.9349 6.54393 21.1909 7.31193 20.3109 7.96793V8.51993C20.3109 9.73593 20.1429 10.9359 19.8069 12.1199C19.4709 13.3039 18.9429 14.4559 18.2229 15.5759C17.5029 16.6959 16.6469 17.6639 15.6549 18.4799C14.6629 19.2959 13.4709 19.9679 12.0789 20.4959C10.6869 21.0239 9.1989 21.2719 7.6149 21.2399C5.1189 21.2399 2.8389 20.5759 0.774902 19.2479C1.0789 19.2799 1.4309 19.2959 1.8309 19.2959C3.9109 19.2959 5.7589 18.6559 7.3749 17.3759C6.3989 17.3599 5.5349 17.0639 4.7829 16.4879C4.0309 15.9119 3.5029 15.1759 3.1989 14.2799C3.5029 14.3279 3.7829 14.3519 4.0389 14.3519C4.4389 14.3519 4.8389 14.3039 5.2389 14.2079C4.1829 13.9999 3.3189 13.4879 2.6469 12.6719C1.9749 11.8559 1.6389 10.9039 1.6389 9.81593V9.76793C2.2629 10.1199 2.9349 10.3119 3.6549 10.3439C3.0469 9.92793 2.5669 9.39993 2.2149 8.75993C1.8629 8.11993 1.6789 7.40793 1.6629 6.62393C1.6629 5.80793 1.8709 5.05593 2.2869 4.36794C3.4069 5.74393 4.7589 6.83993 6.3429 7.65593C7.9269 8.47193 9.6469 8.92793 11.5029 9.02393C11.4229 8.67193 11.3829 8.33593 11.3829 8.01593C11.3829 6.76793 11.8149 5.71993 12.6789 4.87193C13.5429 4.02394 14.5909 3.58393 15.8229 3.55194C17.1349 3.55194 18.2309 4.02394 19.1109 4.96794C20.1189 4.75994 21.0629 4.39194 21.9429 3.86394C21.6069 4.91994 20.9509 5.75194 19.9749 6.35993C20.8389 6.24793 21.6949 6.01593 22.5429 5.66393Z" fill="#324257"/>
</g>
<defs>
<clipPath id="clip0_53_197">
<rect width="24" height="24" fill="white" transform="matrix(1 0 0 -1 0.140625 24)"/>
</clipPath>
</defs>
</svg>
